<mxfile host="app.diagrams.net" modified="2024-02-06T07:52:26.300Z" agent="Mozilla/5.0 (Windows NT 10.0; Win64; x64; rv:122.0) Gecko/20100101 Firefox/122.0" version="23.1.1" etag="QlAj3jrz0mejxGBhpHad" type="github">
  <diagram name="Page-1" id="poVdY1ELScCgHkNBAi3r">
    <mxGraphModel>
      <root>
        <mxCell id="0" />
        <mxCell id="1" parent="0" />
      </root>
    </mxGraphModel>
  </diagram>
</mxfile>
